<svg width="157" height="30" viewBox="0 0 157 30" fill="none" xmlns="http://www.w3.org/2000/svg">
<path d="M47.94 10.72V22H43.5V20.28C43.1533 20.8133 42.6867 21.2467 42.1 21.58C41.5267 21.9133 40.84 22.08 40.04 22.08C38.7467 22.08 37.7333 21.6467 37 20.78C36.28 19.9133 35.92 18.74 35.92 17.26V10.72H40.34V16.7C40.34 17.2333 40.48 17.66 40.76 17.98C41.0533 18.2867 41.44 18.44 41.92 18.44C42.4133 18.44 42.8 18.2867 43.08 17.98C43.36 17.66 43.5 17.2333 43.5 16.7V10.72H47.94ZM49.3453 16.36C49.3453 15.1733 49.5453 14.1467 49.9453 13.28C50.3586 12.4 50.9186 11.7333 51.6253 11.28C52.332 10.8133 53.1253 10.58 54.0053 10.58C54.7386 10.58 55.372 10.7333 55.9053 11.04C56.4386 11.3333 56.8453 11.74 57.1253 12.26V10.72H61.5453V22H57.1253V20.46C56.8453 20.98 56.4386 21.3933 55.9053 21.7C55.372 21.9933 54.7386 22.14 54.0053 22.14C53.1253 22.14 52.332 21.9133 51.6253 21.46C50.9186 20.9933 50.3586 20.3267 49.9453 19.46C49.5453 18.58 49.3453 17.5467 49.3453 16.36ZM57.1253 16.36C57.1253 15.76 56.972 15.2933 56.6653 14.96C56.3586 14.6267 55.9653 14.46 55.4853 14.46C55.0053 14.46 54.612 14.6267 54.3053 14.96C53.9986 15.2933 53.8453 15.76 53.8453 16.36C53.8453 16.96 53.9986 17.4267 54.3053 17.76C54.612 18.0933 55.0053 18.26 55.4853 18.26C55.9653 18.26 56.3586 18.0933 56.6653 17.76C56.972 17.4267 57.1253 16.96 57.1253 16.36ZM67.9791 12.8C68.4324 12.1467 68.9857 11.6267 69.6391 11.24C70.2924 10.84 70.9724 10.64 71.6791 10.64V15.38H70.4191C69.5791 15.38 68.9591 15.5267 68.5591 15.82C68.1724 16.1133 67.9791 16.6333 67.9791 17.38V22H63.5391V10.72H67.9791V12.8ZM72.275 16.36C72.275 15.1733 72.475 14.1467 72.875 13.28C73.2883 12.4 73.8483 11.7333 74.555 11.28C75.2617 10.8133 76.055 10.58 76.935 10.58C77.6683 10.58 78.3017 10.7333 78.835 11.04C79.3683 11.3333 79.775 11.74 80.055 12.26V10.72H84.475V22H80.055V20.46C79.775 20.98 79.3683 21.3933 78.835 21.7C78.3017 21.9933 77.6683 22.14 76.935 22.14C76.055 22.14 75.2617 21.9133 74.555 21.46C73.8483 20.9933 73.2883 20.3267 72.875 19.46C72.475 18.58 72.275 17.5467 72.275 16.36ZM80.055 16.36C80.055 15.76 79.9017 15.2933 79.595 14.96C79.2883 14.6267 78.895 14.46 78.415 14.46C77.935 14.46 77.5417 14.6267 77.235 14.96C76.9283 15.2933 76.775 15.76 76.775 16.36C76.775 16.96 76.9283 17.4267 77.235 17.76C77.5417 18.0933 77.935 18.26 78.415 18.26C78.895 18.26 79.2883 18.0933 79.595 17.76C79.9017 17.4267 80.055 16.96 80.055 16.36ZM94.3688 10.64C95.6621 10.64 96.6688 11.0733 97.3888 11.94C98.1221 12.8067 98.4888 13.98 98.4888 15.46V22H94.0688V16.02C94.0688 15.4867 93.9221 15.0667 93.6288 14.76C93.3488 14.44 92.9688 14.28 92.4888 14.28C91.9954 14.28 91.6088 14.44 91.3288 14.76C91.0488 15.0667 90.9088 15.4867 90.9088 16.02V22H86.4688V10.72H90.9088V12.44C91.2554 11.9067 91.7155 11.4733 92.2888 11.14C92.8755 10.8067 93.5688 10.64 94.3688 10.64ZM107.434 18.22V22H105.754C102.661 22 101.114 20.46 101.114 17.38V14.42H99.7141V10.72H101.114V8H105.554V10.72H107.394V14.42H105.554V17.46C105.554 17.7267 105.614 17.92 105.734 18.04C105.867 18.16 106.081 18.22 106.374 18.22H107.434Z" fill="#171717"/>
<path d="M113.565 11.38V13.12H117.965V16.46H113.565V18.46H118.565V22H109.125V7.84003H118.565V11.38H113.565ZM119.638 16.36C119.638 15.1733 119.838 14.1467 120.238 13.28C120.652 12.4 121.212 11.7333 121.918 11.28C122.625 10.8133 123.418 10.58 124.298 10.58C125.032 10.58 125.665 10.7333 126.198 11.04C126.732 11.3333 127.138 11.74 127.418 12.26V10.72H131.838V22H127.418V20.46C127.138 20.98 126.732 21.3933 126.198 21.7C125.665 21.9933 125.032 22.14 124.298 22.14C123.418 22.14 122.625 21.9133 121.918 21.46C121.212 20.9933 120.652 20.3267 120.238 19.46C119.838 18.58 119.638 17.5467 119.638 16.36ZM127.418 16.36C127.418 15.76 127.265 15.2933 126.958 14.96C126.652 14.6267 126.258 14.46 125.778 14.46C125.298 14.46 124.905 14.6267 124.598 14.96C124.292 15.2933 124.138 15.76 124.138 16.36C124.138 16.96 124.292 17.4267 124.598 17.76C124.905 18.0933 125.298 18.26 125.778 18.26C126.258 18.26 126.652 18.0933 126.958 17.76C127.265 17.4267 127.418 16.96 127.418 16.36ZM138.852 22.14C137.785 22.14 136.839 21.9667 136.012 21.62C135.199 21.2733 134.552 20.7933 134.072 20.18C133.592 19.5667 133.319 18.8733 133.252 18.1H137.512C137.565 18.4333 137.705 18.68 137.932 18.84C138.172 19 138.472 19.08 138.832 19.08C139.059 19.08 139.239 19.0333 139.372 18.94C139.505 18.8333 139.572 18.7067 139.572 18.56C139.572 18.3067 139.432 18.1267 139.152 18.02C138.872 17.9133 138.399 17.7933 137.732 17.66C136.919 17.5 136.245 17.3267 135.712 17.14C135.192 16.9533 134.732 16.6333 134.332 16.18C133.945 15.7267 133.752 15.1 133.752 14.3C133.752 13.6067 133.932 12.98 134.292 12.42C134.665 11.8467 135.212 11.4 135.932 11.08C136.652 10.7467 137.525 10.58 138.552 10.58C140.072 10.58 141.259 10.9533 142.112 11.7C142.979 12.4467 143.499 13.42 143.672 14.62H139.732C139.665 14.3133 139.525 14.08 139.312 13.92C139.099 13.7467 138.812 13.66 138.452 13.66C138.225 13.66 138.052 13.7067 137.932 13.8C137.812 13.88 137.752 14.0067 137.752 14.18C137.752 14.4067 137.892 14.58 138.172 14.7C138.452 14.8067 138.899 14.92 139.512 15.04C140.325 15.2 141.012 15.38 141.572 15.58C142.132 15.78 142.619 16.1267 143.032 16.62C143.445 17.1 143.652 17.7667 143.652 18.62C143.652 19.2867 143.459 19.8867 143.072 20.42C142.685 20.9533 142.125 21.3733 141.392 21.68C140.672 21.9867 139.825 22.14 138.852 22.14ZM156.334 16.26C156.334 16.5667 156.314 16.86 156.274 17.14H149.134C149.201 18.1133 149.607 18.6 150.354 18.6C150.834 18.6 151.181 18.38 151.394 17.94H156.094C155.934 18.74 155.594 19.46 155.074 20.1C154.567 20.7267 153.921 21.2267 153.134 21.6C152.361 21.96 151.507 22.14 150.574 22.14C149.454 22.14 148.454 21.9067 147.574 21.44C146.707 20.9733 146.027 20.3067 145.534 19.44C145.054 18.56 144.814 17.5333 144.814 16.36C144.814 15.1867 145.054 14.1667 145.534 13.3C146.027 12.42 146.707 11.7467 147.574 11.28C148.454 10.8133 149.454 10.58 150.574 10.58C151.694 10.58 152.687 10.8133 153.554 11.28C154.434 11.7333 155.114 12.3867 155.594 13.24C156.087 14.0933 156.334 15.1 156.334 16.26ZM151.834 15.2C151.834 14.8267 151.714 14.5467 151.474 14.36C151.234 14.16 150.934 14.06 150.574 14.06C149.787 14.06 149.327 14.44 149.194 15.2H151.834Z" fill="#FFA63E"/>
<path fill-rule="evenodd" clip-rule="evenodd" d="M22.335 19.8964C22.7943 20.4111 23.336 20.8456 23.9601 21.2C25.0534 21.8 26.3334 22.1 27.8001 22.1C29.4534 22.1 30.8201 21.7267 31.9001 20.98C32.9801 20.22 33.8268 19.3133 34.4401 18.26V13.82H27.2201V16.96H30.7601C30.1334 17.7867 29.3068 18.2 28.2801 18.2C27.2001 18.2 26.4001 17.9267 25.8801 17.38C25.3601 16.8333 25.1001 16.0067 25.1001 14.9C25.1001 13.94 25.3334 13.1867 25.8001 12.64C26.2668 12.08 26.9268 11.8 27.7801 11.8C28.2334 11.8 28.6201 11.88 28.9401 12.04C29.2601 12.1867 29.5068 12.4 29.6801 12.68H34.3601C34.1468 11.1467 33.4534 9.93335 32.2801 9.04001C31.1201 8.14668 29.6134 7.70001 27.7601 7.70001C26.3247 7.70001 25.0713 7.99917 24.0001 8.59747V12.6364C24.0001 15.1726 23.4012 17.6537 22.335 19.8964Z" fill="#171717"/>
<path d="M9.77778 15.1818H12.2222V18.7273H15.8889V12.8182H18.3333L11 6.90909L3.66667 12.8182H6.11111V18.7273H9.77778V15.1818ZM11 1L22 5.72727V12.8182C22 19.3773 17.3067 25.5109 11 27C4.69333 25.5109 0 19.3773 0 12.8182V5.72727L11 1Z" fill="#FFA63E"/>
<path d="M47.94 10.72V22H43.5V20.28C43.1533 20.8133 42.6867 21.2467 42.1 21.58C41.5267 21.9133 40.84 22.08 40.04 22.08C38.7467 22.08 37.7333 21.6467 37 20.78C36.28 19.9133 35.92 18.74 35.92 17.26V10.72H40.34V16.7C40.34 17.2333 40.48 17.66 40.76 17.98C41.0533 18.2867 41.44 18.44 41.92 18.44C42.4133 18.44 42.8 18.2867 43.08 17.98C43.36 17.66 43.5 17.2333 43.5 16.7V10.72H47.94ZM49.3453 16.36C49.3453 15.1733 49.5453 14.1467 49.9453 13.28C50.3586 12.4 50.9186 11.7333 51.6253 11.28C52.332 10.8133 53.1253 10.58 54.0053 10.58C54.7386 10.58 55.372 10.7333 55.9053 11.04C56.4386 11.3333 56.8453 11.74 57.1253 12.26V10.72H61.5453V22H57.1253V20.46C56.8453 20.98 56.4386 21.3933 55.9053 21.7C55.372 21.9933 54.7386 22.14 54.0053 22.14C53.1253 22.14 52.332 21.9133 51.6253 21.46C50.9186 20.9933 50.3586 20.3267 49.9453 19.46C49.5453 18.58 49.3453 17.5467 49.3453 16.36ZM57.1253 16.36C57.1253 15.76 56.972 15.2933 56.6653 14.96C56.3586 14.6267 55.9653 14.46 55.4853 14.46C55.0053 14.46 54.612 14.6267 54.3053 14.96C53.9986 15.2933 53.8453 15.76 53.8453 16.36C53.8453 16.96 53.9986 17.4267 54.3053 17.76C54.612 18.0933 55.0053 18.26 55.4853 18.26C55.9653 18.26 56.3586 18.0933 56.6653 17.76C56.972 17.4267 57.1253 16.96 57.1253 16.36ZM67.9791 12.8C68.4324 12.1467 68.9857 11.6267 69.6391 11.24C70.2924 10.84 70.9724 10.64 71.6791 10.64V15.38H70.4191C69.5791 15.38 68.9591 15.5267 68.5591 15.82C68.1724 16.1133 67.9791 16.6333 67.9791 17.38V22H63.5391V10.72H67.9791V12.8ZM72.275 16.36C72.275 15.1733 72.475 14.1467 72.875 13.28C73.2883 12.4 73.8483 11.7333 74.555 11.28C75.2617 10.8133 76.055 10.58 76.935 10.58C77.6683 10.58 78.3017 10.7333 78.835 11.04C79.3683 11.3333 79.775 11.74 80.055 12.26V10.72H84.475V22H80.055V20.46C79.775 20.98 79.3683 21.3933 78.835 21.7C78.3017 21.9933 77.6683 22.14 76.935 22.14C76.055 22.14 75.2617 21.9133 74.555 21.46C73.8483 20.9933 73.2883 20.3267 72.875 19.46C72.475 18.58 72.275 17.5467 72.275 16.36ZM80.055 16.36C80.055 15.76 79.9017 15.2933 79.595 14.96C79.2883 14.6267 78.895 14.46 78.415 14.46C77.935 14.46 77.5417 14.6267 77.235 14.96C76.9283 15.2933 76.775 15.76 76.775 16.36C76.775 16.96 76.9283 17.4267 77.235 17.76C77.5417 18.0933 77.935 18.26 78.415 18.26C78.895 18.26 79.2883 18.0933 79.595 17.76C79.9017 17.4267 80.055 16.96 80.055 16.36ZM94.3688 10.64C95.6621 10.64 96.6688 11.0733 97.3888 11.94C98.1221 12.8067 98.4888 13.98 98.4888 15.46V22H94.0688V16.02C94.0688 15.4867 93.9221 15.0667 93.6288 14.76C93.3488 14.44 92.9688 14.28 92.4888 14.28C91.9954 14.28 91.6088 14.44 91.3288 14.76C91.0488 15.0667 90.9088 15.4867 90.9088 16.02V22H86.4688V10.72H90.9088V12.44C91.2554 11.9067 91.7155 11.4733 92.2888 11.14C92.8755 10.8067 93.5688 10.64 94.3688 10.64ZM107.434 18.22V22H105.754C102.661 22 101.114 20.46 101.114 17.38V14.42H99.7141V10.72H101.114V8H105.554V10.72H107.394V14.42H105.554V17.46C105.554 17.7267 105.614 17.92 105.734 18.04C105.867 18.16 106.081 18.22 106.374 18.22H107.434Z" fill="#171717"/>
<path d="M113.565 11.38V13.12H117.965V16.46H113.565V18.46H118.565V22H109.125V7.84003H118.565V11.38H113.565ZM119.638 16.36C119.638 15.1733 119.838 14.1467 120.238 13.28C120.652 12.4 121.212 11.7333 121.918 11.28C122.625 10.8133 123.418 10.58 124.298 10.58C125.032 10.58 125.665 10.7333 126.198 11.04C126.732 11.3333 127.138 11.74 127.418 12.26V10.72H131.838V22H127.418V20.46C127.138 20.98 126.732 21.3933 126.198 21.7C125.665 21.9933 125.032 22.14 124.298 22.14C123.418 22.14 122.625 21.9133 121.918 21.46C121.212 20.9933 120.652 20.3267 120.238 19.46C119.838 18.58 119.638 17.5467 119.638 16.36ZM127.418 16.36C127.418 15.76 127.265 15.2933 126.958 14.96C126.652 14.6267 126.258 14.46 125.778 14.46C125.298 14.46 124.905 14.6267 124.598 14.96C124.292 15.2933 124.138 15.76 124.138 16.36C124.138 16.96 124.292 17.4267 124.598 17.76C124.905 18.0933 125.298 18.26 125.778 18.26C126.258 18.26 126.652 18.0933 126.958 17.76C127.265 17.4267 127.418 16.96 127.418 16.36ZM138.852 22.14C137.785 22.14 136.839 21.9667 136.012 21.62C135.199 21.2733 134.552 20.7933 134.072 20.18C133.592 19.5667 133.319 18.8733 133.252 18.1H137.512C137.565 18.4333 137.705 18.68 137.932 18.84C138.172 19 138.472 19.08 138.832 19.08C139.059 19.08 139.239 19.0333 139.372 18.94C139.505 18.8333 139.572 18.7067 139.572 18.56C139.572 18.3067 139.432 18.1267 139.152 18.02C138.872 17.9133 138.399 17.7933 137.732 17.66C136.919 17.5 136.245 17.3267 135.712 17.14C135.192 16.9533 134.732 16.6333 134.332 16.18C133.945 15.7267 133.752 15.1 133.752 14.3C133.752 13.6067 133.932 12.98 134.292 12.42C134.665 11.8467 135.212 11.4 135.932 11.08C136.652 10.7467 137.525 10.58 138.552 10.58C140.072 10.58 141.259 10.9533 142.112 11.7C142.979 12.4467 143.499 13.42 143.672 14.62H139.732C139.665 14.3133 139.525 14.08 139.312 13.92C139.099 13.7467 138.812 13.66 138.452 13.66C138.225 13.66 138.052 13.7067 137.932 13.8C137.812 13.88 137.752 14.0067 137.752 14.18C137.752 14.4067 137.892 14.58 138.172 14.7C138.452 14.8067 138.899 14.92 139.512 15.04C140.325 15.2 141.012 15.38 141.572 15.58C142.132 15.78 142.619 16.1267 143.032 16.62C143.445 17.1 143.652 17.7667 143.652 18.62C143.652 19.2867 143.459 19.8867 143.072 20.42C142.685 20.9533 142.125 21.3733 141.392 21.68C140.672 21.9867 139.825 22.14 138.852 22.14ZM156.334 16.26C156.334 16.5667 156.314 16.86 156.274 17.14H149.134C149.201 18.1133 149.607 18.6 150.354 18.6C150.834 18.6 151.181 18.38 151.394 17.94H156.094C155.934 18.74 155.594 19.46 155.074 20.1C154.567 20.7267 153.921 21.2267 153.134 21.6C152.361 21.96 151.507 22.14 150.574 22.14C149.454 22.14 148.454 21.9067 147.574 21.44C146.707 20.9733 146.027 20.3067 145.534 19.44C145.054 18.56 144.814 17.5333 144.814 16.36C144.814 15.1867 145.054 14.1667 145.534 13.3C146.027 12.42 146.707 11.7467 147.574 11.28C148.454 10.8133 149.454 10.58 150.574 10.58C151.694 10.58 152.687 10.8133 153.554 11.28C154.434 11.7333 155.114 12.3867 155.594 13.24C156.087 14.0933 156.334 15.1 156.334 16.26ZM151.834 15.2C151.834 14.8267 151.714 14.5467 151.474 14.36C151.234 14.16 150.934 14.06 150.574 14.06C149.787 14.06 149.327 14.44 149.194 15.2H151.834Z" fill="#FFA63E"/>
<path fill-rule="evenodd" clip-rule="evenodd" d="M22.335 19.8964C22.7943 20.4111 23.336 20.8456 23.9601 21.2C25.0534 21.8 26.3334 22.1 27.8001 22.1C29.4534 22.1 30.8201 21.7267 31.9001 20.98C32.9801 20.22 33.8268 19.3133 34.4401 18.26V13.82H27.2201V16.96H30.7601C30.1334 17.7867 29.3068 18.2 28.2801 18.2C27.2001 18.2 26.4001 17.9267 25.8801 17.38C25.3601 16.8333 25.1001 16.0067 25.1001 14.9C25.1001 13.94 25.3334 13.1867 25.8001 12.64C26.2668 12.08 26.9268 11.8 27.7801 11.8C28.2334 11.8 28.6201 11.88 28.9401 12.04C29.2601 12.1867 29.5068 12.4 29.6801 12.68H34.3601C34.1468 11.1467 33.4534 9.93335 32.2801 9.04001C31.1201 8.14668 29.6134 7.70001 27.7601 7.70001C26.3247 7.70001 25.0713 7.99917 24.0001 8.59747V12.6364C24.0001 15.1726 23.4012 17.6537 22.335 19.8964Z" fill="#171717"/>
<path d="M9.77778 15.1818H12.2222V18.7273H15.8889V12.8182H18.3333L11 6.90909L3.66667 12.8182H6.11111V18.7273H9.77778V15.1818ZM11 1L22 5.72727V12.8182C22 19.3773 17.3067 25.5109 11 27C4.69333 25.5109 0 19.3773 0 12.8182V5.72727L11 1Z" fill="#FFA63E"/>
</svg>
